<svg width="1920" height="1080" viewBox="0 0 1920 1080" fill="none" xmlns="http://www.w3.org/2000/svg">
  <rect width="1920" height="1080" fill="url(#gradient)"/>
  <path d="M0 800L80 780C160 760 320 720 480 720C640 720 800 760 960 800C1120 840 1280 880 1440 860C1600 840 1760 760 1840 720L1920 680V1080H1840C1760 1080 1600 1080 1440 1080C1280 1080 1120 1080 960 1080C800 1080 640 1080 480 1080C320 1080 160 1080 80 1080H0V800Z" fill="url(#wave)"/>
  <circle cx="200" cy="200" r="100" fill="#3B82F6" opacity="0.1"/>
  <circle cx="1720" cy="880" r="150" fill="#8B5CF6" opacity="0.1"/>
  <circle cx="960" cy="540" r="80" fill="#10B981" opacity="0.1"/>
  <defs>
    <linearGradient id="gradient" x1="0" y1="0" x2="1920" y2="1080" gradientUnits="userSpaceOnUse">
      <stop stop-color="#1E3A8A"/>
      <stop offset="0.5" stop-color="#1E40AF"/>
      <stop offset="1" stop-color="#4C1D95"/>
    </linearGradient>
    <linearGradient id="wave" x1="960" y1="680" x2="960" y2="1080" gradientUnits="userSpaceOnUse">
      <stop stop-color="#1E3A8A" stop-opacity="0.2"/>
      <stop offset="1" stop-color="#1E40AF" stop-opacity="0.1"/>
    </linearGradient>
  </defs>
</svg>